<svg width="24" height="24" viewBox="0 0 24 24" fill="none" xmlns="http://www.w3.org/2000/svg">
<path d="M20.9045 6.875L12 1.75L3.09546 6.875V17.125L12 22.25L20.9045 17.125V6.875Z" stroke="#FFFDFD" stroke-width="0.5" stroke-linecap="round" stroke-linejoin="round"/>
<path d="M16.228 10.847C15.8885 10.846 15.5632 10.7106 15.3232 10.4705C15.0832 10.2304 14.9479 9.90501 14.947 9.56551C14.947 9.11701 15.203 8.73301 15.5235 8.47651C14.6265 7.57951 13.3455 7.00301 12 7.00301C9.24499 7.00301 7.00299 9.24551 7.00299 12C7.00299 14.7545 9.24549 16.997 12 16.997C14.7545 16.997 16.997 14.7545 16.997 12C16.997 11.5513 16.9328 11.103 16.8045 10.655C16.6765 10.783 16.42 10.847 16.228 10.847Z" stroke="#FEF1F1" stroke-width="0.5" stroke-linecap="round" stroke-linejoin="round"/>
</svg>
