<svg width="24" height="24" viewBox="0 0 24 24" fill="none" xmlns="http://www.w3.org/2000/svg">
<path d="M14.4 10.2857H12V8H14.4V10.2857ZM14.4 5.71429H12V0H14.4V5.71429ZM7.2 19.4286C5.88 19.4286 4.812 20.4571 4.812 21.7143C4.812 22.9714 5.88 24 7.2 24C8.52 24 9.6 22.9714 9.6 21.7143C9.6 20.4571 8.52 19.4286 7.2 19.4286ZM19.2 19.4286C17.88 19.4286 16.812 20.4571 16.812 21.7143C16.812 22.9714 17.88 24 19.2 24C20.52 24 21.6 22.9714 21.6 21.7143C21.6 20.4571 20.52 19.4286 19.2 19.4286ZM8.52 13.7143H17.46C18.36 13.7143 19.152 13.2457 19.56 12.5371L24 4.52571L21.9 3.42857L17.46 11.4286H9.036L3.924 1.14286H0V3.42857H2.4L6.72 12.1029L5.1 14.8914C4.224 16.4229 5.376 18.2857 7.2 18.2857H21.6V16H7.2L8.52 13.7143Z" fill="#A79898"/>
</svg>
