<svg width="17" height="18" viewBox="0 0 17 18" fill="none" xmlns="http://www.w3.org/2000/svg">
<path d="M6.54951 12.365C4.95084 12.365 3.59585 11.8097 2.48451 10.699C1.37385 9.58903 0.818512 8.23436 0.818512 6.63503C0.818512 5.0357 1.37385 3.6807 2.48451 2.57003C3.59518 1.45936 4.95018 0.904363 6.54951 0.90503C8.14884 0.905697 9.50351 1.46103 10.6135 2.57103C11.7235 3.68103 12.2788 5.0357 12.2795 6.63503C12.2795 7.3297 12.1565 8.00203 11.9105 8.65203C11.6645 9.30203 11.3412 9.85803 10.9405 10.32L16.8495 16.227C16.9428 16.3204 16.9928 16.4354 16.9995 16.572C17.0055 16.7074 16.9555 16.8284 16.8495 16.935C16.7428 17.0417 16.6248 17.095 16.4955 17.095C16.3662 17.095 16.2482 17.0417 16.1415 16.935L10.2335 11.027C9.73351 11.453 9.15851 11.7827 8.50851 12.016C7.85851 12.2494 7.20518 12.366 6.54851 12.366M6.54851 11.366C7.87518 11.366 8.99551 10.9094 9.90951 9.99603C10.8228 9.0827 11.2795 7.96236 11.2795 6.63503C11.2795 5.3077 10.8232 4.1877 9.91051 3.27503C8.99784 2.36236 7.87785 1.9057 6.55051 1.90503C5.22318 1.90503 4.10285 2.3617 3.18951 3.27503C2.27618 4.18836 1.81918 5.30836 1.81851 6.63503C1.81785 7.9617 2.27451 9.0817 3.18851 9.99503C4.10251 10.9084 5.22251 11.365 6.54851 11.365" fill="#FFF4F4"/>
</svg>
