<svg width="30" height="30" viewBox="0 0 30 30" fill="none" xmlns="http://www.w3.org/2000/svg">
<path d="M16.7871 12.334C16.1104 12.334 15.5859 12.8584 15.5859 13.5059C15.5859 14.1533 16.1104 14.6777 16.7871 14.6777C17.4053 14.6777 17.9297 14.1533 17.9297 13.5059C17.9297 12.8584 17.4053 12.334 16.7871 12.334ZM8.58398 12.334C7.90723 12.334 7.38281 12.8584 7.38281 13.5059C7.38281 14.1533 7.90723 14.6777 8.58398 14.6777C9.20215 14.6777 9.72656 14.1533 9.72656 13.5059C9.72656 12.8584 9.20215 12.334 8.58398 12.334Z" fill="white"/>
<path d="M26.1914 10.1075C24.7822 8.17392 22.8135 6.88193 20.6543 6.29892V6.30185C20.1533 5.74521 19.5879 5.23251 18.9551 4.77548C14.1592 1.28915 7.42676 2.35263 3.92579 7.14853C1.1045 11.045 1.22462 16.2862 4.10157 20.0099L4.12501 23.8946C4.12501 23.9884 4.13965 24.0821 4.16895 24.17C4.32422 24.6651 4.85157 24.9376 5.34376 24.7823L9.05274 23.6134C10.0342 23.962 11.0479 24.1612 12.0557 24.2169L12.041 24.2286C14.6514 26.13 18.0732 26.7013 21.2109 25.6642L24.9346 26.877C25.0283 26.9063 25.125 26.9239 25.2246 26.9239C25.7432 26.9239 26.1621 26.505 26.1621 25.9864V22.0606C28.7432 18.5567 28.8106 13.714 26.1914 10.1075ZM9.4629 21.5333L9.11133 21.3868L6.21094 22.295L6.18165 19.2481L5.94727 18.9845C3.46876 15.961 3.30469 11.6046 5.62501 8.40829C8.44922 4.53525 13.8633 3.67978 17.7246 6.4747C21.5977 9.29013 22.4561 14.6954 19.6582 18.545C17.3115 21.7647 13.1104 22.9542 9.4629 21.5333ZM24.2578 21.0352L24.0234 21.3282L24.0527 24.3751L21.1816 23.4083L20.8301 23.5548C19.1895 24.1642 17.4404 24.214 15.8203 23.7599L15.8145 23.7569C17.9795 23.0919 19.9424 21.7442 21.3574 19.8048C23.5957 16.7198 23.959 12.8438 22.6582 9.53915L22.6758 9.55087C23.3496 10.0343 23.9678 10.6378 24.4922 11.3673C26.6191 14.2852 26.499 18.2579 24.2578 21.0352Z" fill="white"/>
<path d="M12.6855 12.334C12.0088 12.334 11.4844 12.8584 11.4844 13.5059C11.4844 14.1533 12.0088 14.6777 12.6855 14.6777C13.3037 14.6777 13.8281 14.1533 13.8281 13.5059C13.8281 12.8584 13.3037 12.334 12.6855 12.334Z" fill="white"/>
<rect x="14" width="15" height="15" rx="7.5" fill="#F01B1B"/>
<path d="M20.1626 5.63636V10H19.3722V6.40554H19.3466L18.326 7.05753V6.3331L19.4105 5.63636H20.1626ZM22.8835 10.0831C22.5327 10.0831 22.2315 9.99432 21.9801 9.81676C21.7301 9.63778 21.5376 9.37997 21.4027 9.04332C21.2692 8.70526 21.2024 8.2983 21.2024 7.82244C21.2038 7.34659 21.2713 6.94176 21.4048 6.60795C21.5398 6.27273 21.7322 6.01705 21.9822 5.84091C22.2337 5.66477 22.5341 5.5767 22.8835 5.5767C23.233 5.5767 23.5334 5.66477 23.7848 5.84091C24.0362 6.01705 24.2287 6.27273 24.3622 6.60795C24.4972 6.94318 24.5646 7.34801 24.5646 7.82244C24.5646 8.29972 24.4972 8.70739 24.3622 9.04545C24.2287 9.3821 24.0362 9.6392 23.7848 9.81676C23.5348 9.99432 23.2344 10.0831 22.8835 10.0831ZM22.8835 9.41619C23.1563 9.41619 23.3714 9.28196 23.5291 9.01349C23.6882 8.74361 23.7678 8.34659 23.7678 7.82244C23.7678 7.47585 23.7315 7.18466 23.6591 6.94886C23.5866 6.71307 23.4844 6.53551 23.3523 6.41619C23.2202 6.29545 23.0639 6.23509 22.8835 6.23509C22.6122 6.23509 22.3977 6.37003 22.2401 6.63991C22.0824 6.90838 22.0028 7.30256 22.0014 7.82244C22 8.17045 22.0348 8.46307 22.1058 8.70028C22.1783 8.9375 22.2805 9.11648 22.4126 9.23722C22.5447 9.35653 22.7017 9.41619 22.8835 9.41619Z" fill="white"/>
</svg>
